HIERARCHY
ROOT Hips
{
 OFFSET 0.000000 0.000000 0.000000
 CHANNELS 6 Xposition Yposition Zposition Yrotation Xrotation Zrotation
 JOINT Chest
 {
  OFFSET 0.000000 9.929072 0.003365
  CHANNELS 3 Yrotation Xrotation Zrotation
  JOINT Chest2
  {
   OFFSET 0.000000 10.971018 -0.006113
   CHANNELS 3 Yrotation Xrotation Zrotation
   JOINT Chest3
   {
    OFFSET 0.000000 9.912974 0.000000
    CHANNELS 3 Yrotation Xrotation Zrotation
    JOINT Chest4
    {
     OFFSET 0.000000 9.912974 0.000000
     CHANNELS 3 Yrotation Xrotation Zrotation
     JOINT Neck
     {
      OFFSET 0.000000 13.927846 0.000000
      CHANNELS 3 Yrotation Xrotation Zrotation
      JOINT Head
      {
       OFFSET 0.000000 9.224641 -0.014537
       CHANNELS 3 Yrotation Xrotation Zrotation
       End Site
       {
        OFFSET 0.000000 17.699375 -0.007593
       }
      }
     }
     JOINT RightCollar
     {
      OFFSET -2.989629 7.767491 0.000000
      CHANNELS 3 Yrotation Xrotation Zrotation
      JOINT RightShoulder
      {
       OFFSET -13.837047 0.000000 0.000000
       CHANNELS 3 Yrotation Xrotation Zrotation
       JOINT RightElbow
       {
        OFFSET 0.000000 -29.499480 0.000000
        CHANNELS 3 Yrotation Xrotation Zrotation
        JOINT RightWrist
        {
         OFFSET 0.000000 -24.159672 0.001937
         CHANNELS 3 Yrotation Xrotation Zrotation
         End Site
         {
          OFFSET 0.000000 -18.064068 0.000000
         }
        }
       }
      }
     }
     JOINT LeftCollar
     {
      OFFSET 2.989629 7.767491 0.000000
      CHANNELS 3 Yrotation Xrotation Zrotation
      JOINT LeftShoulder
      {
       OFFSET 13.837047 0.000000 0.000000
       CHANNELS 3 Yrotation Xrotation Zrotation
       JOINT LeftElbow
       {
        OFFSET 0.000000 -29.499480 0.000000
        CHANNELS 3 Yrotation Xrotation Zrotation
        JOINT LeftWrist
        {
         OFFSET 0.000000 -24.159672 0.001937
         CHANNELS 3 Yrotation Xrotation Zrotation
         End Site
         {
          OFFSET 0.000000 -18.064068 0.000000
         }
        }
       }
      }
     }
    }
   }
  }
 }
 JOINT RightHip
 {
  OFFSET -8.036712 -0.016490 -0.001683
  CHANNELS 3 Yrotation Xrotation Zrotation
  JOINT RightKnee
  {
   OFFSET 0.000000 -42.121952 0.001592
   CHANNELS 3 Yrotation Xrotation Zrotation
   JOINT RightAnkle
   {
    OFFSET 0.000000 -39.436059 -0.045183
    CHANNELS 3 Yrotation Xrotation Zrotation
    JOINT RightToe
    {
     OFFSET 0.000000 -5.848915 14.759459
     CHANNELS 3 Yrotation Xrotation Zrotation
     End Site
     {
      OFFSET 0.000000 -1.542647 7.054364
     }
    }
   }
  }
 }
 JOINT LeftHip
 {
  OFFSET 8.036712 -0.016490 -0.001683
  CHANNELS 3 Yrotation Xrotation Zrotation
  JOINT LeftKnee
  {
   OFFSET 0.000000 -42.121952 0.001592
   CHANNELS 3 Yrotation Xrotation Zrotation
   JOINT LeftAnkle
   {
    OFFSET 0.000000 -39.436059 -0.045183
    CHANNELS 3 Yrotation Xrotation Zrotation
    JOINT LeftToe
    {
     OFFSET 0.000000 -5.848915 14.759459
     CHANNELS 3 Yrotation Xrotation Zrotation
     End Site
     {
      OFFSET 0.000000 -1.542647 7.054364
     }
    }
   }
  }
 }
}
MOTION
Frames: 11
Frame Time: 0.008333
135.414654 85.305925 142.048660 67.679053 -11.759642 6.254269 1.530874 8.421199 -4.163974 1.041803 3.509665 -0.711154 1.041803 3.509665 -0.711154 0.785198 2.631051 -0.539190 -4.968124 13.842963 -1.861363 -8.637117 -10.442950 -1.540627 2.403188 4.105609 12.524775 -13.862935 -21.726558 -3.733025 16.872814 2.989317 -7.334751 26.366484 -8.225611 -22.354782 4.432525 3.708754 -7.861686 7.690156 -11.612531 7.938286 -15.008537 -5.460874 -4.854522 -32.846280 8.683772 13.406735 -1.507533 19.845142 -2.875236 -3.738477 38.023304 -3.958156 -2.196983 5.270437 0.470088 0.216523 -51.495226 0.782769 2.270444 -10.000150 -10.944668 -4.553453 17.328480 0.536258 2.263920 6.664165 -2.391096 0.064513 -3.066147 -1.393553
136.681355 85.192303 142.199068 67.434227 -11.379657 7.509182 1.591709 8.078095 -5.242484 1.037292 3.461142 -0.761477 1.037292 3.461142 -0.761477 0.782051 2.594578 -0.576817 -4.980699 13.947601 -1.896140 -8.643582 -10.250383 -1.607114 2.319242 4.256150 12.448087 -14.052218 -21.397323 -3.600863 17.012898 3.035815 -7.332939 26.275100 -7.970416 -22.238337 4.405888 3.779788 -7.827518 7.626189 -11.520444 8.043764 -15.041216 -5.859943 -4.818081 -32.945843 8.670020 13.826504 -1.610734 18.204171 -4.574278 -5.040137 40.876334 -4.590967 -1.764241 8.494590 0.713671 0.299874 -56.362806 1.193089 2.348213 -9.622278 -12.462504 -5.903186 17.582518 0.181472 3.930278 5.839857 -1.462204 0.148327 -2.635219 -1.666338
137.809080 85.101261 142.416779 66.966446 -10.793002 8.224064 1.920673 7.558777 -5.749133 1.048407 3.413379 -0.807686 1.048407 3.413379 -0.807686 0.790590 2.558663 -0.611449 -4.980679 14.027309 -1.935958 -8.625238 -10.104761 -1.686575 2.268328 4.321158 12.329285 -14.155375 -20.975286 -3.518439 17.111445 3.048053 -7.322294 26.182699 -7.716999 -22.103675 4.411282 3.822184 -7.810533 7.509912 -11.414029 8.168799 -14.981653 -6.316075 -4.809227 -33.036224 8.630354 14.261265 -1.255610 16.349810 -5.681173 -6.637855 43.729775 -5.538708 -0.781363 11.422351 1.164211 0.388422 -60.897277 1.265731 2.634383 -9.461709 -13.287293 -6.981012 17.867342 -0.255025 5.374420 4.725641 -0.512394 0.181709 -2.014132 -1.857837
138.832961 85.046603 142.705424 66.541793 -10.273395 8.346738 2.245941 7.129775 -5.681818 1.071022 3.369237 -0.849401 1.071022 3.369237 -0.849401 0.807724 2.525455 -0.642780 -4.974282 14.064367 -1.977490 -8.595644 -10.038524 -1.769325 2.249170 4.259693 12.221399 -14.200778 -20.481877 -3.519884 17.194018 3.034788 -7.307133 26.091747 -7.494229 -21.946912 4.406980 3.803337 -7.803749 7.400463 -11.292132 8.297737 -14.874802 -6.808903 -4.842803 -33.069682 8.569178 14.687199 -0.744043 14.522314 -6.152579 -8.417199 46.496668 -6.778674 0.667094 14.235022 1.728909 0.403664 -65.210988 1.072981 2.813258 -9.288989 -13.442862 -7.560544 18.151493 -0.621766 6.365639 3.358935 0.408431 0.168181 -1.202044 -1.993164
139.776413 85.037246 143.031555 66.231479 -9.978086 8.075536 2.435527 6.905086 -5.227766 1.095405 3.337815 -0.891205 1.095405 3.337815 -0.891205 0.826196 2.501780 -0.674206 -4.956374 14.064703 -2.021305 -8.544625 -10.040860 -1.858839 2.294493 4.092748 12.122947 -14.205254 -19.944775 -3.588265 17.253737 3.003149 -7.297020 26.028785 -7.305536 -21.777958 4.416859 3.733428 -7.807272 7.272345 -11.173753 8.434987 -14.660687 -7.329001 -4.915461 -33.079657 8.434972 15.134701 -0.313312 12.796803 -6.232341 -10.307615 49.207777 -8.262688 2.250791 17.154459 2.265414 0.238620 -69.387373 0.984613 2.777775 -8.942192 -13.146376 -7.430027 18.361367 -0.840001 6.723271 1.962336 1.327105 0.108704 -0.352236 -2.104666
140.642973 85.072980 143.330565 66.049389 -9.892620 7.681246 2.470908 6.879344 -4.655732 1.117852 3.320079 -0.934559 1.117852 3.320079 -0.934559 0.843238 2.488368 -0.706804 -4.932059 14.042562 -2.062199 -8.483338 -10.084879 -1.944170 2.343159 3.882328 12.046383 -14.115686 -19.429821 -3.727510 17.286697 2.970993 -7.286346 26.015208 -7.181854 -21.587711 4.427130 3.617007 -7.822047 7.171618 -11.057836 8.566932 -14.401158 -7.858654 -5.020844 -33.036187 8.267710 15.544644 -0.079758 11.206923 -6.178935 -12.129999 51.766259 -9.930026 3.690214 20.186921 2.861666 -0.041786 -72.245112 1.079156 2.532262 -8.384321 -12.712345 -6.695755 18.342875 -0.910822 6.593844 0.807783 2.250926 0.020246 0.382263 -2.185792
141.424045 85.135767 143.617198 65.963167 -10.035791 7.116915 2.380030 7.061616 -3.911985 1.136612 3.316029 -0.982232 1.136612 3.316029 -0.982232 0.857559 2.485213 -0.742645 -4.896786 14.004333 -2.098145 -8.403761 -10.158751 -2.023685 2.408746 3.675883 12.007845 -13.934951 -18.985688 -3.938239 17.309511 2.951838 -7.257481 26.036589 -7.114743 -21.393034 4.456496 3.479524 -7.825356 7.087304 -10.974153 8.685554 -14.095733 -8.423733 -5.168383 -32.996457 8.041313 15.972650 -0.127696 9.787234 -5.935934 -13.701021 54.035237 -11.625446 4.976495 23.422188 3.538367 -0.395545 -73.803066 1.267390 2.105033 -7.629324 -12.129289 -5.631053 18.185839 -0.815199 6.209437 -0.127874 3.059622 -0.070613 0.985652 -2.213708
142.113939 85.245116 143.844224 65.833072 -10.165918 6.726373 2.314441 7.258450 -3.345177 1.155571 3.321755 -1.027180 1.155571 3.321755 -1.027180 0.872027 2.489394 -0.776459 -4.853443 13.948290 -2.129508 -8.311192 -10.265598 -2.096912 2.435233 3.517488 11.991979 -13.663201 -18.638910 -4.165968 17.335414 2.929682 -7.231370 26.095900 -7.096317 -21.206300 4.466196 3.345065 -7.808894 7.043737 -10.956851 8.781950 -13.798152 -8.967273 -5.361264 -32.899382 7.783073 16.386377 -0.287750 8.336647 -5.787510 -14.881848 55.941628 -13.182421 5.815919 26.627721 4.148938 -1.064846 -73.778947 1.994346 1.761746 -6.865180 -11.757414 -4.492126 17.854280 -0.615754 5.704801 -0.683102 3.754260 -0.124566 1.323716 -2.183166
142.746025 85.383459 144.076306 65.746815 -10.433846 6.319418 2.182976 7.590409 -2.779066 1.171647 3.335407 -1.068242 1.171647 3.335407 -1.068242 0.884326 2.499528 -0.807359 -4.801920 13.873133 -2.161038 -8.203516 -10.408065 -2.172854 2.453482 3.392428 12.008002 -13.332611 -18.370835 -4.422320 17.366913 2.914039 -7.207276 26.183598 -7.115742 -20.997340 4.457598 3.237310 -7.775423 7.020909 -11.018186 8.866153 -13.467084 -9.514049 -5.594854 -32.764978 7.452993 16.836083 -0.594719 7.010876 -5.548770 -15.766277 57.548552 -14.583759 6.176739 29.661616 4.500477 -1.877839 -72.241395 3.163982 1.373161 -6.040777 -11.394666 -3.402038 17.617075 -0.364825 5.217820 -1.311486 4.322890 -0.173746 1.670776 -2.125595
143.339286 85.545404 144.305035 65.663525 -10.729271 6.051468 2.027633 7.968783 -2.375760 1.183161 3.356605 -1.102615 1.183161 3.356605 -1.102615 0.893182 2.515341 -0.833233 -4.740424 13.777920 -2.189494 -8.078585 -10.587767 -2.246161 2.463373 3.281581 12.053540 -12.989062 -18.182327 -4.697631 17.432228 2.899797 -7.186367 26.309359 -7.160070 -20.787219 4.453374 3.147633 -7.721289 7.004068 -11.144187 8.929496 -13.135042 -10.037972 -5.867164 -32.578240 7.116655 17.274844 -1.027468 5.709041 -5.388018 -16.514974 59.045969 -15.929173 6.335359 31.978620 4.520580 -2.181739 -69.183663 3.904756 1.012481 -5.142351 -11.196309 -2.584666 17.216931 -0.111152 4.931468 -1.668986 4.789697 -0.195715 1.834682 -2.050750
143.902860 85.723873 144.509517 65.404505 -10.788160 6.105917 2.025506 8.145731 -2.295426 1.188584 3.385296 -1.126251 1.188584 3.385296 -1.126251 0.897427 2.536804 -0.851037 -4.670150 13.668201 -2.220439 -7.936211 -10.794614 -2.327239 2.482830 3.175669 12.115701 -12.662928 -18.057711 -4.987082 17.507717 2.894205 -7.175313 26.478117 -7.226116 -20.563462 4.439621 3.082405 -7.677175 6.962181 -11.351101 9.007543 -12.737129 -10.547121 -6.179495 -32.385013 6.711934 17.758110 -1.367456 4.201782 -5.453569 -17.291647 60.574419 -17.295270 6.211951 32.988522 4.033950 -1.813089 -64.649950 4.065711 0.878023 -4.419965 -11.296532 -2.247222 16.686460 0.010981 5.064244 -1.697154 5.203514 -0.183026 1.741632 -1.954413
